<svg style="width: 25px; height: 25px;" xmlns="http://www.w3.org/2000/svg">
<path d="M354.387 176.48c3.992 35.91-12.024 70.91-41.793 91.344C290.309 283.125 277 307.864 277 334v20h-40v-20c0-39.324 19.797-76.39 52.957-99.152 17.578-12.067 27.031-32.739 24.676-53.95-2.934-26.363-24.352-47.613-50.934-50.53-17.078-1.876-33.355 3.253-45.832 14.437C205.7 155.707 199 170.695 199 187v20h-40v-20c0-27.422 11.727-53.66 32.168-71.98 20.754-18.602 48.781-27.497 76.895-24.41 45.039 4.94 81.343 41.054 86.324 85.87zM237 422h40v-40h-40zm275-166c0 68.379-26.629 132.668-74.98 181.02C388.668 485.37 324.379 512 256 512s-132.668-26.629-181.02-74.98C26.63 388.668 0 324.379 0 256S26.629 123.332 74.98 74.98C123.332 26.63 187.621 0 256 0s132.668 26.629 181.02 74.98C485.37 123.332 512 187.621 512 256zm-40 0c0-119.102-96.898-216-216-216S40 136.898 40 256s96.898 216 216 216 216-96.898 216-216zm0 0"/>
</svg>