<svg fill="#537498"  version="1.1" id="Layer_1" xmlns="http://www.w3.org/2000/svg" xmlns:xlink="http://www.w3.org/1999/xlink"
	 viewBox="0 0 512 512" >
<path d="M256,0C114.8,0,0,114.8,0,256s114.8,256,256,256s256-114.8,256-256S397.2,0,256,0z M256,202.7c29.4,0,53.3,23.9,53.3,53.3
	s-23.9,53.3-53.3,53.3V202.7z M256,341.3c47.1,0,85.3-38.3,85.3-85.3s-38.3-85.3-85.3-85.3v-53.3c76.5,0,138.7,62.2,138.7,138.7
	S332.5,394.7,256,394.7V341.3z M256,480v-53.3c94.1,0,170.7-76.6,170.7-170.7S350.1,85.3,256,85.3V32c123.5,0,224,100.5,224,224
	S379.5,480,256,480z"/>
</svg>
