<svg id="Layer_1" data-name="Layer 1" xmlns="http://www.w3.org/2000/svg" viewBox="0 0 1726.34 608.64"><defs><style>.cls-1{fill:#4cddee;}</style></defs><title>logo</title><path class="cls-1" d="M103.92,436.62H-.61L161.13,49.32h95.18l161.74,387.3H311.87L279.41,355.2h-143Zm104-263.52L167.73,276h80.32Z" transform="translate(6.11)"/><path class="cls-1" d="M531.93,436.62h-99V51.52h99V198.41L656.81,51.52H775.64L626.55,228.67l176.6,208H682.67L531.93,265.53Z" transform="translate(6.11)"/><path class="cls-1" d="M912.61,307.25h-99L802.54,0H923.65Z" transform="translate(6.11)"/><path class="cls-1" d="M1058.41,436.62h-99V51.52h181q63.81,0,100.68,33.56,38,33,38,85.27,0,37.42-19.81,66t-55,42.36l116.63,157.89H1206.95L1098,289.74h-39.61Zm0-301.48v73.72h76.47q20.35,0,32.18-9.63t11.83-26.68q0-17-11.83-27.23t-32.18-10.18Z" transform="translate(6.11)"/><path class="cls-1" d="M1406.1,436.62H1301.57l161.74-387.3h95.18l161.74,387.3H1614.05l-32.46-81.42h-143Zm104-263.52L1469.91,276h80.32Z" transform="translate(6.11)"/><path class="cls-1" d="M506.85,606.6H426.43V496.43H504.8v15.89H443.74v27.54h49.74v15.9H443.74V590.7h63.11Z" transform="translate(6.11)"/><path class="cls-1" d="M566.19,606.6H527.31V496.43h38.87q26.44,0,43.28,15.42t16.84,39.66q0,24.4-16.84,39.82Q592.78,606.6,566.19,606.6Zm-21.56-94.28V590.7h20q20.77,0,32.27-10.54,11.64-10.7,11.65-28.65t-11.65-28.64q-11.49-10.54-32.27-10.55Z" transform="translate(6.11)"/><path class="cls-1" d="M648.34,560V496.43h17.31v64.21q0,15.26,7.71,23.53t21.09,8.26q13.38,0,21.17-8.26t7.79-23.53V496.43h17.31V560q0,23.13-12.9,35.88-13.07,12.75-33.37,12.75T661.09,596Q648.34,583.3,648.34,560Z" transform="translate(6.11)"/><path class="cls-1" d="M820.68,608.64q-24.71,0-41.55-16.05-16.53-16.21-16.52-41.08t16.52-40.92q16.37-16.21,41.55-16.21,16.84,0,29.9,7.4v17.47a53.6,53.6,0,0,0-29.75-8.66q-17.31,0-29,11.65-11.49,11.49-11.49,29.27T792,580.94q11.64,11.49,29.43,11.49,18.89,0,31.48-10.07v17.47Q839.09,608.64,820.68,608.64Z" transform="translate(6.11)"/><path class="cls-1" d="M882.38,606.6H864l48.16-110.8h16.68L977,606.6H958.39l-12-27.39H894.18Zm37.93-88.92-20.15,46.27h40.29Z" transform="translate(6.11)"/><path class="cls-1" d="M969.88,512.32V496.43h90.18v15.89h-36.51V606.6h-17.31V512.32Z" transform="translate(6.11)"/><path class="cls-1" d="M1097.05,606.6h-17.31V496.43h17.31Z" transform="translate(6.11)"/><path class="cls-1" d="M1217.93,592.27q-16.05,16.37-40.29,16.37t-40.29-16.37q-15.9-16.68-15.89-40.76t15.89-40.61q16.06-16.53,40.29-16.53t40.29,16.53Q1234,527.27,1234,551.51T1217.93,592.27Zm-67.67-11.49a38,38,0,0,0,54.77,0q11.17-12,11.18-29.28,0-17.47-11.18-29.11a37.67,37.67,0,0,0-54.77,0q-11,11.49-11,29.11T1150.25,580.78Z" transform="translate(6.11)"/><path class="cls-1" d="M1274.43,606.6h-17V496.43h15.11l62.17,79.8v-79.8h17V606.6h-14.64l-62.64-80.11Z" transform="translate(6.11)"/><rect class="cls-1" y="496.47" width="396.37" height="109.75"/><circle class="cls-1" cx="869.2" cy="383.27" r="53.36"/></svg>